<?xml version="1.0" encoding="utf-8"?>
<!-- Generated by IcoMoon.io -->
<!DOCTYPE svg PUBLIC "-//W3C//DTD SVG 1.1//EN" "http://www.w3.org/Graphics/SVG/1.1/DTD/svg11.dtd">
<svg version="1.1" xmlns="http://www.w3.org/2000/svg" xmlns:xlink="http://www.w3.org/1999/xlink" width="14" height="14" viewBox="0 0 14 14">
	<path d="M13.744 4.631l-4.375-4.375c-0.217-0.217-0.532-0.304-0.83-0.231-0.157 0.038-0.297 0.119-0.409 0.231-0.099 0.099-0.174 0.222-0.217 0.36-0.198 0.643-0.541 1.201-1.048 1.708-0.677 0.677-1.559 1.19-2.492 1.732-0.99 0.574-2.014 1.169-2.853 2.007-0.713 0.714-1.198 1.507-1.482 2.429-0.096 0.311-0.012 0.647 0.217 0.878l4.375 4.375c0.217 0.217 0.532 0.304 0.83 0.231 0.157-0.039 0.297-0.119 0.409-0.231 0.099-0.099 0.174-0.222 0.217-0.361 0.199-0.643 0.541-1.201 1.049-1.708 0.677-0.677 1.558-1.189 2.492-1.73 0.99-0.575 2.013-1.17 2.852-2.008 0.713-0.713 1.198-1.507 1.483-2.429 0.095-0.311 0.011-0.648-0.217-0.877zM5.25 13.125c-1.449-1.449-2.926-2.926-4.375-4.375 1.243-4.025 6.633-3.85 7.875-7.875 1.449 1.449 2.926 2.926 4.376 4.375-1.244 4.025-6.633 3.85-7.876 7.875zM8.558 6.519c-0.143-0.119-0.286-0.201-0.43-0.241-0.143-0.040-0.287-0.056-0.432-0.046-0.143 0.011-0.291 0.044-0.438 0.1-0.147 0.057-0.295 0.119-0.444 0.192-0.235-0.27-0.47-0.537-0.705-0.784 0.106-0.096 0.209-0.144 0.308-0.148 0.099-0.004 0.195 0.006 0.285 0.029 0.092 0.023 0.177 0.043 0.255 0.058 0.079 0.015 0.147-0.002 0.207-0.052 0.063-0.055 0.098-0.126 0.103-0.211 0.004-0.086-0.028-0.17-0.1-0.252-0.092-0.106-0.203-0.17-0.337-0.194-0.132-0.023-0.266-0.021-0.407 0.009-0.138 0.032-0.27 0.084-0.395 0.157s-0.225 0.149-0.299 0.222c-0.028-0.027-0.057-0.054-0.085-0.080-0.031-0.029-0.071-0.045-0.118-0.044-0.048 0-0.087 0.021-0.119 0.058-0.031 0.037-0.046 0.080-0.040 0.125 0.004 0.047 0.023 0.083 0.056 0.11 0.028 0.024 0.057 0.048 0.085 0.073-0.112 0.135-0.204 0.284-0.277 0.442-0.073 0.158-0.117 0.315-0.133 0.466-0.017 0.153-0.001 0.293 0.046 0.423 0.047 0.131 0.133 0.242 0.26 0.347 0.206 0.171 0.448 0.244 0.73 0.228 0.28-0.017 0.583-0.101 0.908-0.275 0.258 0.298 0.517 0.595 0.776 0.87-0.109 0.092-0.205 0.145-0.29 0.162-0.084 0.018-0.16 0.016-0.228-0.004-0.068-0.021-0.132-0.052-0.19-0.091-0.058-0.040-0.115-0.074-0.173-0.102-0.056-0.028-0.115-0.044-0.174-0.045s-0.123 0.028-0.193 0.088c-0.072 0.063-0.108 0.135-0.108 0.217 0 0.081 0.038 0.164 0.111 0.248 0.074 0.084 0.171 0.154 0.288 0.21s0.249 0.091 0.394 0.1c0.145 0.010 0.298-0.012 0.46-0.072 0.162-0.059 0.323-0.166 0.481-0.325 0.076 0.074 0.153 0.145 0.23 0.213 0.032 0.028 0.072 0.042 0.119 0.038 0.046-0.002 0.086-0.023 0.118-0.062 0.032-0.039 0.046-0.083 0.041-0.128-0.004-0.046-0.023-0.081-0.055-0.107-0.077-0.062-0.154-0.126-0.231-0.195 0.131-0.161 0.236-0.33 0.314-0.497 0.078-0.168 0.124-0.331 0.139-0.481 0.015-0.151-0.003-0.288-0.052-0.412-0.049-0.126-0.136-0.233-0.261-0.337zM6.112 6.815c-0.124 0.005-0.232-0.036-0.326-0.127-0.040-0.038-0.068-0.085-0.085-0.141-0.018-0.056-0.024-0.116-0.017-0.183 0.006-0.066 0.026-0.134 0.060-0.203 0.032-0.069 0.080-0.138 0.142-0.205 0.222 0.22 0.443 0.462 0.665 0.713-0.168 0.092-0.314 0.142-0.438 0.147zM8.176 7.691c-0.039 0.073-0.084 0.137-0.137 0.194-0.245-0.248-0.49-0.52-0.735-0.799 0.063-0.028 0.128-0.057 0.199-0.087s0.142-0.049 0.213-0.062c0.073-0.011 0.144-0.008 0.216 0.009 0.071 0.018 0.138 0.056 0.201 0.117 0.062 0.062 0.101 0.126 0.116 0.195 0.017 0.070 0.018 0.141 0.006 0.213-0.013 0.073-0.039 0.146-0.079 0.219zM6.439 9.704c0.086-0.070 0.213-0.066 0.292 0.014 0.086 0.085 0.086 0.225 0 0.31-0.007 0.007-0.014 0.012-0.022 0.018l0.001 0.001c-0.277 0.21-0.504 0.4-0.75 0.645-0.222 0.221-0.422 0.455-0.595 0.691l-0.28 0.383c-0.009 0.016-0.019 0.030-0.032 0.044-0.086 0.085-0.225 0.085-0.311 0-0.074-0.074-0.084-0.189-0.029-0.274l-0.001-0.001 0.299-0.409c0.187-0.255 0.402-0.506 0.639-0.743 0.247-0.248 0.514-0.469 0.787-0.679h0.001zM8.040 3.375c0.221-0.221 0.421-0.454 0.595-0.692l0.291-0.398c0.011-0.019 0.022-0.038 0.038-0.054 0.086-0.086 0.226-0.086 0.312 0 0.082 0.082 0.085 0.212 0.011 0.299l0.001 0.001-0.299 0.41c-0.187 0.256-0.402 0.505-0.639 0.742-0.247 0.247-0.514 0.469-0.787 0.679l-0.002-0.001c-0.087 0.080-0.222 0.078-0.306-0.006-0.086-0.086-0.086-0.227 0-0.313 0.015-0.016 0.033-0.028 0.051-0.038 0.257-0.196 0.505-0.402 0.734-0.631z" fill="#929292" />
</svg>
