<?xml version="1.0" encoding="utf-8"?>
<!-- Generated by IcoMoon.io -->
<!DOCTYPE svg PUBLIC "-//W3C//DTD SVG 1.1//EN" "http://www.w3.org/Graphics/SVG/1.1/DTD/svg11.dtd">
<svg version="1.1" xmlns="http://www.w3.org/2000/svg" xmlns:xlink="http://www.w3.org/1999/xlink" width="14" height="14" viewBox="0 0 14 14">
	<path d="M10.938 0c-0.898 0-1.604 0.617-2.11 1.569l-0.009-0.005c-0.736 1.441-1.831 2.374-3.031 2.374h-4.036c-0.981 0-1.75 0.961-1.75 2.188 0 1.227 0.769 2.188 1.75 2.188 0.483 0.002 0.873 0.392 0.873 0.875v3.938c0 0.483 0.392 0.875 0.875 0.875h1.75c0.483 0 0.875-0.392 0.875-0.875v-0.438c0-0.438-0.438-0.633-0.438-0.875v-3.063c0-0.010 0.007-0.017 0.008-0.027 0.004-0.063 0.021-0.12 0.049-0.173 0.008-0.014 0.016-0.026 0.026-0.038 0.035-0.052 0.079-0.095 0.133-0.128 0.003-0.002 0.003-0.004 0.006-0.006 0.002 0 0.003-0.002 0.005-0.002 0.035-0.020 0.077-0.024 0.116-0.035 1.104 0.117 2.104 1.008 2.79 2.351l0.011-0.005c0.507 0.949 1.211 1.564 2.108 1.564 2.011 0 3.063-3.081 3.063-6.125s-1.052-6.125-3.063-6.125zM8.75 6.125c0-0.454 0.027-0.892 0.072-1.313h1.241c0.483 0 0.875 0.588 0.875 1.313 0 0.725-0.392 1.313-0.875 1.313h-1.241c-0.045-0.42-0.072-0.858-0.072-1.313zM0.875 6.125c0-0.724 0.392-1.313 0.875-1.313h3.069c-0.271 0.319-0.444 0.782-0.444 1.313 0 0.532 0.172 0.994 0.444 1.313h-3.069c-0.483 0-0.875-0.587-0.875-1.313zM5.248 13.125h-1.75v-3.938c0-0.319-0.085-0.617-0.235-0.875h0.305v0.005h1.316c-0.047 0.136-0.074 0.28-0.074 0.432v3.063c0 0.421 0.235 0.702 0.376 0.869 0.019 0.023 0.042 0.047 0.062 0.073v0.371zM5.786 7.443h-0.099v-0.005c-0.483 0-0.875-0.587-0.875-1.313 0-0.724 0.392-1.313 0.875-1.313h0.099c0.825 0 1.598-0.325 2.278-0.883-0.125 0.704-0.189 1.45-0.189 2.195 0 0.748 0.064 1.496 0.19 2.201-0.68-0.559-1.453-0.883-2.279-0.883zM10.938 11.375c-0.883 0-1.641-1.256-1.987-3.063h1.112c0.981 0 1.75-0.96 1.75-2.188 0-1.226-0.769-2.188-1.75-2.188h-1.112c0.346-1.806 1.104-3.063 1.987-3.063 1.208 0 2.188 2.351 2.188 5.25s-0.979 5.25-2.188 5.25z" fill="#929292" />
</svg>
