<?xml version="1.0" encoding="utf-8"?>
<!-- Generated by IcoMoon.io -->
<!DOCTYPE svg PUBLIC "-//W3C//DTD SVG 1.1//EN" "http://www.w3.org/Graphics/SVG/1.1/DTD/svg11.dtd">
<svg version="1.1" xmlns="http://www.w3.org/2000/svg" xmlns:xlink="http://www.w3.org/1999/xlink" width="14" height="14" viewBox="0 0 14 14">
	<path d="M13.8 0.070c-0.073-0.047-0.155-0.070-0.238-0.070-0.084 0-0.169 0.024-0.243 0.074l-13.125 8.75c-0.135 0.090-0.21 0.248-0.192 0.41 0.017 0.161 0.122 0.301 0.273 0.361l3.423 1.37 1.61 2.817c0.077 0.135 0.22 0.219 0.375 0.22 0.002 0 0.003 0 0.005 0 0.154 0 0.296-0.081 0.375-0.213l0.909-1.515 4.242 1.696c0.052 0.021 0.107 0.031 0.162 0.031 0.074 0 0.148-0.019 0.214-0.056 0.116-0.065 0.195-0.179 0.217-0.309l2.188-13.125c0.028-0.172-0.048-0.344-0.194-0.439zM1.372 9.090l10.139-6.76-7.372 7.891c-0.039-0.023-0.074-0.054-0.116-0.071l-2.651-1.060zM4.458 10.529c-0.001-0.002-0.002-0.003-0.003-0.004l8.288-8.87-7.065 11.008-1.219-2.134zM11.032 12.954l-3.737-1.495c-0.089-0.035-0.181-0.047-0.273-0.052l5.754-8.92-1.745 10.466z" fill="#929292" />
</svg>
