<?xml version="1.0" encoding="utf-8"?>
<!-- Generated by IcoMoon.io -->
<!DOCTYPE svg PUBLIC "-//W3C//DTD SVG 1.1//EN" "http://www.w3.org/Graphics/SVG/1.1/DTD/svg11.dtd">
<svg version="1.1" xmlns="http://www.w3.org/2000/svg" xmlns:xlink="http://www.w3.org/1999/xlink" width="14" height="14" viewBox="0 0 14 14">
	<path d="M13.611 12.397c-0.088-0.058-1.683-1.105-4.057-1.618 0.871-1.103 1.43-2.586 1.667-3.574 0.33-1.369 0.202-4.046-1.113-5.715-0.768-0.975-1.843-1.49-3.108-1.49-1.265 0-2.34 0.515-3.108 1.49-1.314 1.668-1.442 4.346-1.113 5.714 0.238 0.987 0.796 2.471 1.667 3.574-2.373 0.514-3.969 1.56-4.056 1.618-0.321 0.213-0.464 0.612-0.352 0.981 0.111 0.37 0.452 0.623 0.837 0.623h12.25c0.385 0 0.725-0.253 0.837-0.622 0.112-0.368-0.031-0.767-0.352-0.981zM8.867 10.237l-0.143 0.181c-1.043 1.199-2.404 1.199-3.447 0l-0.143-0.181c-1.218-1.544-1.823-3.586-1.563-5.534 0.238-1.872 1.311-3.827 3.429-3.827 2.117 0 3.191 1.956 3.429 3.828 0.259 1.949-0.343 3.989-1.562 5.534zM0.875 13.125c0.060-0.040 1.543-1.012 3.756-1.491l1.087-0.235c0.388 0.255 0.814 0.413 1.282 0.413 0.469 0 0.894-0.159 1.282-0.413l1.087 0.235c2.196 0.475 3.673 1.436 3.756 1.491h-12.25z" fill="#929292" />
</svg>
